<?xml version="1.0" encoding="utf-8"?>
<!-- Generator: Adobe Illustrator 24.0.3, SVG Export Plug-In . SVG Version: 6.00 Build 0)  -->
<svg version="1.1" id="logo" xmlns="http://www.w3.org/2000/svg" xmlns:xlink="http://www.w3.org/1999/xlink" x="0px" y="0px"
	 viewBox="0 0 366 200" style="enable-background:new 0 0 366 200;" xml:space="preserve">
<style type="text/css">
	.st0{fill:#F12639;}
	.st1{fill:#FFFFFF;}
	.st2{fill:#231F20;}
</style>
<rect id="logo_bg" class="st0" width="366" height="200"/>
<g>
	<g>
		<g>
			<path class="st1" d="M226.4,60.8c0,0-0.8-0.3-2.2-1c-1.5-0.6-3.6-1.5-6.5-2.4c-2.9-1-6.4-2-10.6-2.9c-4.2-0.9-9-1.8-14.3-2.4
				c-5.3-0.6-11.1-1.1-17.3-1.2c-3.1-0.1-6.3,0-9.6,0.1c-1.6,0.1-3.2,0.1-4.8,0.2c-1.7,0.1-3.3,0.2-5,0.3c-3.4,0.3-6.8,0.7-10.3,1.2
				c-1.7,0.2-3.5,0.5-5.2,0.8c-1.7,0.3-3.5,0.7-5.2,1c-6.9,1.5-13.8,3.5-20.4,5.8c-6.6,2.3-12.9,5-19,7.6c-3,1.3-6,2.6-8.9,3.8
				c-2.9,1.2-5.8,2.3-8.7,3.3c-2.9,1-5.7,1.7-8.5,2.3c-1.4,0.3-2.8,0.5-4.2,0.7c-1.4,0.2-2.7,0.3-4.1,0.4
				c-5.8,0.3-11.4,0.3-16.6,0.1c-10.3-0.4-18.9-1.5-24.9-2.5c-3-0.5-5.3-0.9-6.9-1.3c-1.6-0.3-2.4-0.5-2.4-0.5s0.8,0.4,2.2,1
				c1.5,0.6,3.7,1.5,6.5,2.4c2.9,1,6.4,2,10.6,3c4.2,1,8.9,1.9,14.2,2.7c5.3,0.7,11.1,1.2,17.4,1.4c1.5,0,3.4,0,5-0.1
				c1.7-0.1,3.4-0.3,5.1-0.5c3.4-0.5,6.7-1.2,10-2.1c3.3-0.9,6.5-2,9.6-3.2c3.2-1.2,6.3-2.4,9.3-3.6c6.2-2.5,12.3-5,18.5-7.1
				c6.2-2.2,12.5-4.1,18.9-5.6c3.2-0.7,6.4-1.4,9.6-2c3.2-0.6,6.4-1.1,9.5-1.5c1.6-0.2,3.1-0.4,4.7-0.6c0.8-0.1,1.5-0.2,2.3-0.2
				c0.8-0.1,1.6-0.2,2.4-0.3c3-0.3,6-0.5,8.9-0.7c5.9-0.3,11.5-0.4,16.6-0.3c10.3,0.2,18.9,1.2,24.9,2.2c0.8,0.1,1.5,0.2,2.1,0.4
				c0.7,0.1,1.3,0.2,1.9,0.3c1.1,0.2,2.1,0.4,2.9,0.6C225.6,60.7,226.4,60.8,226.4,60.8z"/>
			<path class="st1" d="M226.4,64.2c0,0-0.7-0.2-2-0.5c-1.3-0.3-3.2-0.7-5.7-1.2c-4.9-0.9-12.1-1.9-20.8-2.5
				c-4.3-0.3-9.1-0.5-14.1-0.5c-5,0-10.3,0.2-15.8,0.7c-1.4,0.1-2.8,0.2-4.1,0.4c-1.4,0.1-2.8,0.3-4.2,0.5c-2.8,0.3-5.6,0.8-8.5,1.3
				c-5.7,1-11.4,2.5-16.9,4.3c-1.4,0.5-2.7,0.9-4.1,1.4c-1.4,0.5-2.8,1.1-4.1,1.6c-1.2,0.5-2.5,1.1-3.7,1.6
				c-1.2,0.6-2.5,1.1-3.7,1.6c-1.2,0.5-2.4,1.1-3.5,1.6c-1.2,0.5-2.4,1-3.6,1.5c-1.2,0.5-2.4,1-3.5,1.4c-1.2,0.5-2.4,0.9-3.6,1.3
				c-1.2,0.4-2.4,0.8-3.5,1.3c-1.2,0.4-2.4,0.7-3.5,1.1c-1.2,0.4-2.3,0.7-3.4,1.1c-1.2,0.3-2.3,0.6-3.4,1c-1.1,0.3-2.2,0.7-3.3,0.9
				c-1.1,0.3-2.2,0.5-3.3,0.8c-2.1,0.6-4.3,0.9-6.3,1.4c-1,0.2-2,0.4-3,0.6c-1,0.2-1.9,0.3-2.9,0.5c-1.9,0.3-3.7,0.6-5.4,0.8
				c-1.7,0.2-3.3,0.4-4.8,0.6c-1.5,0.1-2.8,0.3-4.1,0.4c-2.5,0.2-4.4,0.3-5.8,0.3c-1.3,0-2.1,0-2.1,0s0.7,0.2,2,0.4
				c0.7,0.1,1.5,0.3,2.5,0.4c0.5,0.1,1,0.2,1.6,0.2c0.6,0.1,1.2,0.1,1.8,0.2c2.5,0.3,5.6,0.5,9.2,0.6c1.8,0,3.7,0,5.7,0
				c1,0,2-0.1,3.1-0.1c1.1,0,2.1-0.1,3.2-0.2c2.2-0.2,4.5-0.4,6.8-0.7c1.2-0.2,2.4-0.3,3.6-0.5c1.2-0.2,2.4-0.4,3.7-0.6
				c1.2-0.2,2.5-0.5,3.7-0.7c1.2-0.3,2.5-0.6,3.8-0.9c1.3-0.3,2.6-0.6,3.9-0.9c1.3-0.4,2.6-0.7,3.9-1.1c1.3-0.4,2.6-0.7,3.9-1.2
				c1.3-0.4,2.6-0.9,3.9-1.3c1.3-0.5,2.6-0.9,3.9-1.4c1.3-0.5,2.6-1,3.8-1.6c1.2-0.5,2.5-1,3.8-1.5c1.3-0.5,2.5-1,3.8-1.6
				c1.2-0.4,2.4-0.9,3.5-1.3c1.2-0.4,2.5-0.8,3.7-1.3c5-1.7,10.2-3,15.4-4.1c1.3-0.3,2.6-0.5,3.9-0.8c1.3-0.3,2.6-0.5,3.9-0.7
				c1.3-0.2,2.6-0.4,3.9-0.6c0.6-0.1,1.3-0.2,1.9-0.3c0.6-0.1,1.3-0.2,1.9-0.3c10.3-1.4,20.1-2.2,28.5-2.7c4.2-0.2,8.1-0.4,11.6-0.5
				c3.5-0.1,6.5-0.1,9-0.2c2.5,0,4.5,0,5.8,0C225.7,64.2,226.4,64.2,226.4,64.2z"/>
		</g>
		<g>
			<path class="st1" d="M62.1,96.3h13.1l10.3,26l26.8-69h12.8l-39.3,96.2"/>
			<path class="st1" d="M171.2,115.8c-1.4,3.4-3.4,6.3-6,8.9c-2.5,2.5-5.6,4.6-9.1,6c-3.5,1.5-7.4,2.2-11.5,2.2
				c-4.2,0-8-0.7-11.5-2.2c-3.5-1.5-6.5-3.4-9.1-5.9c-2.5-2.5-4.5-5.4-5.9-8.8c-1.4-3.4-2.1-7-2.1-10.9V105c0-3.9,0.7-7.5,2.2-10.9
				c1.4-3.4,3.4-6.3,6-8.9s5.6-4.6,9.1-6c3.5-1.5,7.4-2.2,11.5-2.2c4.2,0,8,0.7,11.5,2.2c3.5,1.5,6.5,3.4,9.1,5.9
				c2.5,2.5,4.5,5.4,5.9,8.8c1.4,3.4,2.1,7,2.1,10.9v0.2C173.4,108.8,172.6,112.4,171.2,115.8z M160.9,105c0-2.3-0.4-4.5-1.2-6.6
				c-0.8-2.1-1.9-3.9-3.4-5.4c-1.5-1.5-3.2-2.8-5.2-3.7c-2-0.9-4.2-1.4-6.6-1.4c-2.4,0-4.6,0.4-6.6,1.3c-2,0.9-3.7,2.1-5.1,3.6
				c-1.4,1.5-2.5,3.3-3.3,5.4c-0.8,2-1.2,4.2-1.2,6.5v0.2c0,2.3,0.4,4.5,1.2,6.6c0.8,2.1,1.9,3.9,3.4,5.4c1.5,1.5,3.2,2.8,5.2,3.7
				c2,0.9,4.2,1.4,6.6,1.4c2.4,0,4.6-0.4,6.6-1.3c2-0.9,3.7-2.1,5.1-3.6c1.4-1.5,2.5-3.3,3.3-5.4c0.8-2,1.2-4.2,1.2-6.5V105z"/>
			<path class="st1" d="M181.9,132V77.9h11.9V132H181.9z"/>
			<path class="st1" d="M249.3,127.3c-1.5,1.2-3.1,2.2-4.9,3.1c-1.8,0.8-3.7,1.5-5.8,1.9c-2.1,0.4-4.5,0.7-7.1,0.7
				c-4,0-7.6-0.7-11-2.2c-3.4-1.4-6.3-3.4-8.8-5.9c-2.5-2.5-4.4-5.4-5.8-8.8c-1.4-3.4-2.1-7-2.1-10.9V105c0-3.9,0.7-7.5,2.1-10.9
				c1.4-3.4,3.3-6.3,5.8-8.9c2.5-2.5,5.4-4.6,8.9-6c3.4-1.5,7.3-2.2,11.4-2.2c2.5,0,4.8,0.2,6.9,0.6c2.1,0.4,4,1,5.7,1.7
				c1.7,0.7,3.3,1.6,4.7,2.6c1.4,1,2.8,2.2,4,3.4l-7.6,8.7c-2.1-1.9-4.3-3.4-6.4-4.5c-2.2-1.1-4.6-1.6-7.4-1.6
				c-2.3,0-4.4,0.4-6.3,1.3c-1.9,0.9-3.6,2.1-5,3.6c-1.4,1.5-2.5,3.3-3.2,5.4c-0.8,2-1.2,4.2-1.2,6.5v0.2c0,2.3,0.4,4.5,1.2,6.6
				c0.8,2.1,1.8,3.9,3.2,5.4c1.4,1.5,3,2.8,4.9,3.7c1.9,0.9,4.1,1.4,6.4,1.4c3.1,0,5.7-0.6,7.8-1.7c2.1-1.1,4.3-2.7,6.4-4.6l7.6,7.6
				C252.2,124.8,250.8,126.1,249.3,127.3z"/>
			<path class="st1" d="M263.1,132V77.9h40.7v10.6h-29v11h25.5V110h-25.5v11.4h29.3V132H263.1z"/>
		</g>
	</g>
	<g>
		<path class="st2" d="M125.1,160.3l-1-3h-7.3l-1.1,3h-5.8l8.5-21.1h4.2l8.4,21.1H125.1z M120.5,145.8L120.5,145.8l-2.2,7.2h4.4
			L120.5,145.8z"/>
		<path class="st2" d="M153.2,149.5c0,5.7-4.2,11.2-11.2,11.2c-6.2,0-11.2-4.9-11.2-11c0-6.4,5.2-10.8,11.3-10.8
			c4.8,0,9.3,3.2,10.5,7.5h-6c-1-1.7-2.6-2.7-4.6-2.7c-3.4,0-5.8,2.7-5.8,6.1c0,3.5,2.2,6.3,5.8,6.3c2.5,0,4.4-1.2,5-3.4h-6.3v-4.3
			h12.5V149.5z"/>
		<path class="st2" d="M171.3,147.2c-0.9-2.3-2.9-3.7-5.1-3.7c-3.4,0-5.6,2.9-5.6,6.2c0,3.4,2.3,6.3,5.7,6.3c2.1,0,4-1.2,5.1-3.6
			h5.6c-1.3,5.1-5.7,8.3-10.6,8.3c-2.9,0-5.7-1-7.9-3.2c-2.3-2.2-3.2-4.9-3.2-8.1c0-5.6,4.8-10.6,10.8-10.6c2.9,0,5.2,0.8,7.3,2.6
			c2,1.7,3.2,3.6,3.6,5.8H171.3z"/>
		<path class="st2" d="M200.8,160.3v-8.4h-6.9v8.4h-5.4v-21.1h5.4v7.9h6.9v-7.9h5.4v21.1H200.8z"/>
		<path class="st2" d="M217.5,160.8c-4.8,0-8.5-3.6-8.5-8.4c0-4.9,3.8-8.4,8.5-8.4c4.8,0,8.5,3.6,8.5,8.3
			C226.1,157.3,222.3,160.8,217.5,160.8z M221.3,152.4c0-2.1-1.6-4-3.8-4c-2.1,0-3.8,1.8-3.8,4c0,2.2,1.7,4,3.8,4
			C219.8,156.4,221.3,154.5,221.3,152.4z"/>
		<path class="st2" d="M238.9,160.3v-1.7h-0.1c-0.7,1.5-1.9,2.2-4.1,2.2c-3.3,0-6.1-2-6.1-6.5v-9.8h4.7v8.9c0,2.1,0.7,3,2.5,3
			c1.8,0,2.7-1.2,2.7-3.1v-8.8h4.7v15.8H238.9z"/>
		<path class="st2" d="M253.5,148.9c0-0.9-0.7-1.2-1.5-1.2c-0.8,0-1.4,0.5-1.4,1.1c0,0.9,0.8,1.3,3,1.9c3.8,1,5,2.5,5,4.8
			c0,3.3-2.8,5.4-6.4,5.4c-3.6,0-6.1-2-6.4-5.2h4.7c0.1,1,0.9,1.5,1.8,1.5c0.8,0,1.7-0.5,1.7-1.2c0-0.9-0.5-1.3-2.9-2.1
			c-4-1.2-5-2.8-5-4.6c0-3.1,2.9-5.2,6.1-5.2c3.4,0,5.8,1.9,6.1,5H253.5z"/>
		<path class="st2" d="M261.9,160.3v-12.2h-2.3v-3.6h2.3v-5.3h4.7v5.3h2.3v3.6h-2.3v12.2H261.9z"/>
		<path class="st2" d="M278.3,160.8c-4.8,0-8.5-3.6-8.5-8.4c0-4.9,3.8-8.4,8.5-8.4c4.8,0,8.5,3.6,8.5,8.3
			C286.9,157.3,283.1,160.8,278.3,160.8z M282.1,152.4c0-2.1-1.6-4-3.8-4c-2.1,0-3.8,1.8-3.8,4c0,2.2,1.7,4,3.8,4
			C280.6,156.4,282.1,154.5,282.1,152.4z"/>
		<path class="st2" d="M299.4,160.3v-8.8c0-2.1-0.7-3.1-2.5-3.1c-1.9,0-2.7,1.1-2.7,3.2v8.7h-4.7v-15.8h4.4v1.7h0.1
			c1-1.6,2.4-2.2,4.3-2.2c2.8,0,5.9,1.6,5.9,6.3v10.1H299.4z"/>
	</g>
</g>
</svg>
