<?xml version="1.0" encoding="utf-8"?>
<!-- Generator: Adobe Illustrator 24.0.3, SVG Export Plug-In . SVG Version: 6.00 Build 0)  -->
<svg version="1.1" id="Layer_1" xmlns="http://www.w3.org/2000/svg" xmlns:xlink="http://www.w3.org/1999/xlink" x="0px" y="0px"
	 viewBox="0 0 220.3 78.4" style="enable-background:new 0 0 220.3 78.4;" xml:space="preserve">
<style type="text/css">
	.st0{fill:none;}
	.st1{fill:#FFFFFF;}
</style>
<rect x="0.2" y="11.7" class="st0" width="598.9" height="358.6"/>
<g>
	<g>
		<g>
			<path class="st1" d="M158,8c0,0-0.5-0.2-1.5-0.7c-1-0.4-2.5-1-4.5-1.7c-2-0.7-4.5-1.4-7.4-2c-2.9-0.7-6.3-1.2-9.9-1.7
				c-3.7-0.4-7.7-0.7-12-0.8c-2.2,0-4.4,0-6.6,0.1c-1.1,0.1-2.2,0.1-3.4,0.2c-1.2,0.1-2.3,0.1-3.5,0.2c-2.3,0.2-4.7,0.5-7.1,0.8
				c-1.2,0.2-2.4,0.4-3.6,0.6c-1.2,0.2-2.4,0.5-3.6,0.7c-4.8,1-9.6,2.4-14.2,4c-4.6,1.6-9,3.4-13.2,5.3c-2.1,0.9-4.2,1.8-6.2,2.6
				c-2,0.8-4,1.6-6,2.3c-2,0.7-3.9,1.2-5.9,1.6c-1,0.2-1.9,0.4-2.9,0.5c-1,0.1-1.9,0.2-2.9,0.3c-4.1,0.2-7.9,0.2-11.5,0
				C25,19.9,19,19.1,14.8,18.4c-2.1-0.3-3.7-0.6-4.8-0.9c-1.1-0.2-1.7-0.4-1.7-0.4s0.5,0.3,1.5,0.7c1,0.4,2.5,1,4.5,1.7
				c2,0.7,4.5,1.4,7.3,2.1c2.9,0.7,6.2,1.3,9.9,1.9c3.7,0.5,7.7,0.9,12,1c1.1,0,2.3,0,3.5-0.1c1.2-0.1,2.3-0.2,3.5-0.4
				c2.4-0.3,4.7-0.9,7-1.5c2.3-0.6,4.5-1.4,6.7-2.2c2.2-0.8,4.3-1.6,6.5-2.5c4.3-1.7,8.5-3.4,12.8-4.9c4.3-1.5,8.7-2.8,13.1-3.9
				c2.2-0.5,4.4-1,6.6-1.4c2.2-0.4,4.4-0.7,6.6-1c1.1-0.1,2.2-0.3,3.3-0.4c0.5-0.1,1.1-0.1,1.6-0.2c0.6-0.1,1.1-0.1,1.7-0.2
				c2.1-0.2,4.2-0.4,6.2-0.5c4.1-0.2,8-0.3,11.5-0.2c7.2,0.1,13.1,0.8,17.3,1.5c0.5,0.1,1,0.2,1.5,0.3c0.5,0.1,0.9,0.2,1.3,0.2
				c0.8,0.2,1.5,0.3,2,0.4C157.4,7.8,158,8,158,8z"/>
			<path class="st1" d="M158,10.3c0,0-0.5-0.1-1.4-0.3c-0.9-0.2-2.2-0.5-3.9-0.8c-3.4-0.6-8.4-1.3-14.4-1.7c-3-0.2-6.3-0.3-9.8-0.3
				c-3.5,0-7.2,0.1-11,0.5c-1,0.1-1.9,0.2-2.9,0.3c-1,0.1-1.9,0.2-2.9,0.4c-2,0.2-3.9,0.6-5.9,0.9c-3.9,0.7-7.9,1.7-11.8,3
				c-1,0.3-1.9,0.6-2.9,1c-1,0.4-1.9,0.7-2.9,1.1c-0.9,0.4-1.7,0.8-2.6,1.1c-0.9,0.4-1.7,0.8-2.6,1.1c-0.8,0.4-1.6,0.7-2.5,1.1
				c-0.8,0.4-1.7,0.7-2.5,1c-0.8,0.3-1.6,0.7-2.5,1c-0.8,0.3-1.7,0.6-2.5,0.9c-0.8,0.3-1.6,0.6-2.4,0.9c-0.8,0.3-1.6,0.5-2.4,0.8
				c-0.8,0.3-1.6,0.5-2.4,0.8c-0.8,0.2-1.6,0.4-2.4,0.7c-0.8,0.2-1.5,0.5-2.3,0.6c-0.8,0.2-1.5,0.4-2.3,0.6c-1.5,0.4-3,0.7-4.4,1
				c-0.7,0.2-1.4,0.3-2.1,0.4c-0.7,0.1-1.3,0.2-2,0.4c-1.3,0.2-2.5,0.4-3.7,0.6c-1.2,0.1-2.3,0.3-3.3,0.4c-1,0.1-2,0.2-2.8,0.3
				c-1.7,0.1-3.1,0.2-4,0.2c-0.9,0-1.4,0-1.4,0s0.5,0.1,1.4,0.3c0.5,0.1,1,0.2,1.7,0.3c0.3,0,0.7,0.1,1.1,0.2c0.4,0,0.8,0.1,1.2,0.1
				c1.8,0.2,3.9,0.3,6.4,0.4c1.2,0,2.6,0,3.9,0c0.7,0,1.4-0.1,2.1-0.1c0.7,0,1.5-0.1,2.2-0.1c1.5-0.1,3.1-0.3,4.7-0.5
				c0.8-0.1,1.6-0.2,2.5-0.3c0.8-0.1,1.7-0.3,2.5-0.4c0.9-0.2,1.7-0.3,2.6-0.5c0.9-0.2,1.7-0.4,2.6-0.6c0.9-0.2,1.8-0.4,2.7-0.6
				c0.9-0.3,1.8-0.5,2.7-0.8c0.9-0.3,1.8-0.5,2.7-0.8c0.9-0.3,1.8-0.6,2.7-0.9c0.9-0.3,1.8-0.6,2.7-1c0.9-0.4,1.8-0.7,2.7-1.1
				c0.9-0.4,1.7-0.7,2.6-1.1c0.9-0.4,1.7-0.7,2.6-1.1c0.8-0.3,1.6-0.6,2.5-0.9c0.8-0.3,1.7-0.6,2.6-0.9c3.5-1.1,7.1-2.1,10.7-2.9
				c0.9-0.2,1.8-0.4,2.7-0.6c0.9-0.2,1.8-0.3,2.7-0.5c0.9-0.2,1.8-0.3,2.7-0.4c0.4-0.1,0.9-0.1,1.3-0.2c0.4-0.1,0.9-0.1,1.3-0.2
				c7.1-1,13.9-1.5,19.8-1.9c2.9-0.2,5.6-0.3,8-0.3c2.4-0.1,4.5-0.1,6.2-0.1c1.7,0,3.1,0,4,0C157.5,10.3,158,10.3,158,10.3z"/>
		</g>
		<g>
			<path class="st1" d="M43.9,32.6H53l7.2,18.1L78.8,2.7h8.9L60.5,69.5"/>
			<path class="st1" d="M119.7,46.1c-1,2.3-2.4,4.4-4.2,6.2c-1.8,1.8-3.9,3.2-6.3,4.2c-2.4,1-5.1,1.5-8,1.5c-2.9,0-5.6-0.5-8-1.5
				c-2.4-1-4.5-2.4-6.3-4.1c-1.8-1.7-3.1-3.8-4.1-6.1c-1-2.3-1.5-4.9-1.5-7.5v-0.1c0-2.7,0.5-5.2,1.5-7.5c1-2.3,2.4-4.4,4.2-6.2
				s3.9-3.2,6.3-4.2c2.4-1,5.1-1.5,8-1.5c2.9,0,5.6,0.5,8,1.5c2.4,1,4.5,2.4,6.3,4.1c1.8,1.7,3.1,3.8,4.1,6.1c1,2.3,1.5,4.9,1.5,7.5
				v0.1C121.2,41.3,120.7,43.8,119.7,46.1z M112.6,38.6c0-1.6-0.3-3.1-0.8-4.6c-0.6-1.4-1.3-2.7-2.4-3.8c-1-1.1-2.2-1.9-3.6-2.5
				c-1.4-0.6-2.9-0.9-4.6-0.9c-1.7,0-3.2,0.3-4.6,0.9c-1.4,0.6-2.6,1.4-3.5,2.5c-1,1.1-1.8,2.3-2.3,3.7c-0.6,1.4-0.8,2.9-0.8,4.5
				v0.1c0,1.6,0.3,3.1,0.8,4.6c0.6,1.4,1.3,2.7,2.4,3.8c1,1.1,2.2,1.9,3.6,2.5c1.4,0.6,2.9,0.9,4.6,0.9c1.6,0,3.2-0.3,4.6-0.9
				c1.4-0.6,2.6-1.4,3.6-2.5c1-1.1,1.8-2.3,2.3-3.7c0.6-1.4,0.8-2.9,0.8-4.5V38.6z"/>
			<path class="st1" d="M127.2,57.4V19.8h8.3v37.5H127.2z"/>
			<path class="st1" d="M173.9,54.1c-1,0.8-2.2,1.5-3.4,2.1c-1.2,0.6-2.6,1-4,1.3c-1.5,0.3-3.1,0.5-4.9,0.5c-2.8,0-5.3-0.5-7.7-1.5
				c-2.4-1-4.4-2.4-6.1-4.1c-1.7-1.7-3.1-3.8-4-6.1c-1-2.4-1.4-4.9-1.4-7.6v-0.1c0-2.7,0.5-5.2,1.4-7.5c1-2.3,2.3-4.4,4-6.2
				c1.7-1.8,3.8-3.2,6.2-4.2c2.4-1,5-1.5,7.9-1.5c1.8,0,3.4,0.1,4.8,0.4c1.4,0.3,2.8,0.7,3.9,1.2c1.2,0.5,2.3,1.1,3.3,1.8
				c1,0.7,1.9,1.5,2.8,2.4l-5.3,6.1c-1.5-1.3-3-2.4-4.5-3.1c-1.5-0.8-3.2-1.1-5.1-1.1c-1.6,0-3,0.3-4.4,0.9
				c-1.3,0.6-2.5,1.4-3.5,2.5c-1,1.1-1.7,2.3-2.3,3.7c-0.5,1.4-0.8,2.9-0.8,4.5v0.1c0,1.6,0.3,3.1,0.8,4.6c0.5,1.4,1.3,2.7,2.2,3.8
				c0.9,1.1,2.1,1.9,3.4,2.5c1.3,0.6,2.8,0.9,4.4,0.9c2.1,0,4-0.4,5.4-1.2c1.5-0.8,3-1.9,4.4-3.2l5.3,5.3
				C175.9,52.3,174.9,53.3,173.9,54.1z"/>
			<path class="st1" d="M183.5,57.4V19.8h28.3v7.3h-20.1v7.6h17.7v7.3h-17.7V50H212v7.3H183.5z"/>
		</g>
	</g>
	<g>
		<path class="st1" d="M87.7,77L87,74.9h-5.1L81.1,77h-4L83,62.4h2.9L91.8,77H87.7z M84.5,67L84.5,67l-1.6,5H86L84.5,67z"/>
		<path class="st1" d="M107.2,69.5c0,3.9-2.9,7.8-7.8,7.8c-4.3,0-7.8-3.4-7.8-7.7c0-4.4,3.6-7.5,7.8-7.5c3.3,0,6.5,2.2,7.3,5.2h-4.2
			c-0.7-1.2-1.8-1.9-3.2-1.9c-2.4,0-4,1.9-4,4.3c0,2.4,1.5,4.4,4,4.4c1.7,0,3-0.8,3.5-2.4h-4.4v-3h8.7V69.5z"/>
		<path class="st1" d="M119.7,67.9c-0.6-1.6-2-2.6-3.5-2.6c-2.3,0-3.9,2-3.9,4.3c0,2.4,1.6,4.3,3.9,4.3c1.5,0,2.7-0.8,3.5-2.5h3.9
			c-0.9,3.5-3.9,5.8-7.4,5.8c-2,0-4-0.7-5.5-2.2c-1.6-1.5-2.3-3.4-2.3-5.6c0-3.9,3.3-7.4,7.5-7.4c2,0,3.6,0.6,5.1,1.8
			c1.4,1.2,2.2,2.5,2.5,4H119.7z"/>
		<path class="st1" d="M140.2,77v-5.9h-4.8V77h-3.7V62.4h3.7v5.5h4.8v-5.5h3.7V77H140.2z"/>
		<path class="st1" d="M151.9,77.4c-3.3,0-5.9-2.5-5.9-5.8c0-3.4,2.6-5.8,5.9-5.8c3.3,0,5.9,2.5,5.9,5.8
			C157.8,74.9,155.2,77.4,151.9,77.4z M154.5,71.5c0-1.5-1.1-2.8-2.6-2.8c-1.4,0-2.6,1.3-2.6,2.8c0,1.5,1.1,2.8,2.6,2.8
			C153.4,74.3,154.5,73,154.5,71.5z"/>
		<path class="st1" d="M166.7,77v-1.2h0c-0.5,1-1.3,1.5-2.8,1.5c-2.3,0-4.2-1.4-4.2-4.5V66h3.3v6.1c0,1.4,0.5,2.1,1.8,2.1
			c1.2,0,1.9-0.8,1.9-2.2V66h3.3v11H166.7z"/>
		<path class="st1" d="M176.9,69.1c0-0.6-0.5-0.8-1-0.8c-0.6,0-0.9,0.3-0.9,0.7c0,0.6,0.5,0.9,2.1,1.3c2.6,0.7,3.5,1.7,3.5,3.3
			c0,2.3-2,3.7-4.5,3.7c-2.5,0-4.2-1.4-4.5-3.6h3.3c0.1,0.7,0.6,1,1.2,1c0.6,0,1.1-0.3,1.1-0.8c0-0.6-0.4-0.9-2-1.4
			c-2.8-0.9-3.5-1.9-3.5-3.2c0-2.2,2-3.6,4.3-3.6c2.4,0,4.1,1.3,4.2,3.5H176.9z"/>
		<path class="st1" d="M182.7,77v-8.5h-1.6V66h1.6v-3.7h3.3V66h1.6v2.5H186V77H182.7z"/>
		<path class="st1" d="M194.1,77.4c-3.3,0-5.9-2.5-5.9-5.8c0-3.4,2.6-5.8,5.9-5.8c3.3,0,5.9,2.5,5.9,5.8
			C200,74.9,197.4,77.4,194.1,77.4z M196.7,71.5c0-1.5-1.1-2.8-2.6-2.8c-1.4,0-2.6,1.3-2.6,2.8c0,1.5,1.1,2.8,2.6,2.8
			C195.6,74.3,196.7,73,196.7,71.5z"/>
		<path class="st1" d="M208.7,77v-6.1c0-1.5-0.5-2.2-1.7-2.2c-1.3,0-1.9,0.7-1.9,2.2v6h-3.3V66h3.1v1.2h0c0.7-1.1,1.7-1.5,3-1.5
			c2,0,4.1,1.1,4.1,4.3v7H208.7z"/>
	</g>
</g>
</svg>
